<?xml version="1.0" encoding="UTF-8" standalone="no"?>
<!-- Created with Inkscape (http://www.inkscape.org/) -->

<svg
   xmlns:dc="http://purl.org/dc/elements/1.1/"
   xmlns:cc="http://creativecommons.org/ns#"
   xmlns:rdf="http://www.w3.org/1999/02/22-rdf-syntax-ns#"
   xmlns:svg="http://www.w3.org/2000/svg"
   xmlns="http://www.w3.org/2000/svg"
   xmlns:sodipodi="http://sodipodi.sourceforge.net/DTD/sodipodi-0.dtd"
   xmlns:inkscape="http://www.inkscape.org/namespaces/inkscape"
   id="svg2"
   sodipodi:docname="comicsoundefffect2.svg"
   viewBox="0 0 668.25 419.76"
   sodipodi:version="0.32"
   version="1.0"
   inkscape:output_extension="org.inkscape.output.svg.inkscape"
   inkscape:version="0.91 r13725">
  <sodipodi:namedview
     id="base"
     bordercolor="#666666"
     inkscape:pageshadow="2"
     guidetolerance="10"
     pagecolor="#ffffff"
     gridtolerance="10000"
     inkscape:zoom="0.7"
     objecttolerance="10"
     showgrid="false"
     borderopacity="1.0"
     inkscape:current-layer="g3238"
     inkscape:cx="196.92494"
     inkscape:cy="240.54148"
     inkscape:pageopacity="0.0"
     inkscape:document-units="px"
     inkscape:window-width="1920"
     inkscape:window-height="1002"
     inkscape:window-x="0"
     inkscape:window-y="34"
     inkscape:window-maximized="1" />
  <defs
     id="defs4" />
  <g
     id="layer1"
     inkscape:label="Layer 1"
     inkscape:groupmode="layer"
     transform="translate(37.386 -314.98)">
    <g
       id="g3238"
       transform="translate(-523.26 11.112)">
      <g
         id="g4165">
        <path
           id="path3768"
           style="opacity:0.87190001;fill:#ffd42a"
           d="m 825.89,347.718 c -5.98,9.6 -11.2,22.47 -18.26,30.16 -6.65,-7.37 -9.01,-25.95 -22.18,-24.05 -15.54,7.76 -24.72,25.18 -38.71,33.34 -4.54,-7.38 -17.33,-7.31 -16.79,2.93 -1.75,6.49 1.2,20.14 -10.09,13.7 -10.19,-1.13 -24.45,-11.28 -32.88,-3.1 -2.83,7.37 16.74,17.99 0.71,14.72 -17.02,-0.69 -34.26,-3.6 -51.24,-2.09 -8.98,6.89 4.76,16.27 8.69,22.58 -16.65,-3.15 -34.599,-12.8 -51.227,-11.49 -7.526,8.61 8.706,18.3 12.699,26.08 10.769,8.97 -8.946,5.06 -14.613,6.2 -9.023,1.52 -25.957,-3.09 -29.312,7.74 -1.208,6.22 17.038,8.42 6.349,8.39 -9.319,1.4 -29.441,-5.42 -30.704,7.83 5.371,10.07 22.557,12.87 28.53,19.15 -10.73,1.7 -6.663,14.89 3.305,14.18 16.12,0.29 3.333,3.3 -5.207,6.32 -6.893,1.37 -22.47,8.97 -11.145,15.28 8.736,3.53 26.684,1.64 30.182,4.24 -15.576,6.11 -34.835,6.83 -47.84,17.28 -0.922,11.77 18.521,8.36 26.269,10.51 7.66,0.49 21.375,1.05 7.045,5.06 -9.955,0.77 -18.331,17.35 -3.74,16.63 6.55,0.29 28.049,-6.37 23.485,-1.15 -7.568,9.04 -24.863,14.06 -25.573,26.66 10.282,7.57 26.362,0.42 38.62,1.14 5.66,0.35 29.517,-5.17 17.048,1.71 -8.466,2.68 -14.279,17.99 -0.608,16.46 14.497,-2.05 31.627,-7.9 44.447,-8.39 -2.37,7.86 -15.67,17.98 -7.65,25.67 14.04,-0.79 24.35,-14.15 37.05,-19.4 0.09,9.67 -11.99,23.94 -1.48,30.57 21.32,-6.65 40.81,-20.82 60.71,-28.85 1.6,7.1 -3.52,25.3 9.4,23.31 9.83,-4.87 19.33,-15.06 27.48,-18.75 3.77,7.76 -2.6,29.39 12.53,25.92 9.75,-3.61 8.01,-24.39 20.63,-15.45 14.06,2.89 28.93,15.18 43.21,11.13 3.05,-10.7 -4.36,-21.78 -4.69,-32.68 18.19,4.82 35.46,12.89 54.01,16.3 11.47,-1.63 -5.39,-19.34 7.45,-9.38 6.99,4.84 24.59,16.38 26.82,1.88 1.97,-9.82 0.5,-19.89 2,-29.75 12.54,0.69 25.91,9.45 37.93,4.97 5.94,-8.03 -12.37,-15.65 -10.88,-19.4 18.9,0.74 39,9.26 57.24,5.54 3.07,-8.62 -5.1,-17.41 -7.31,-25.67 12.31,-0.77 27.78,6.95 38.01,3.18 5.14,-10.23 -10.27,-19.72 -13.62,-29.02 0.43,-7.7 38.71,3.14 30.32,-11.9 -8.85,-3.75 -18.11,-6.76 -26.61,-11.16 12.93,-2.71 27.03,0.33 39.4,-3.59 4.58,-12.31 -40.28,-15.92 -20.27,-21.27 8.18,-4.65 26.89,-2.03 27.58,-13.53 -7.8,-9.99 -26.29,-4.79 -34.71,-7.75 9.86,-6.73 27.17,-7.05 32.18,-18.42 -5.11,-11.17 -23.53,-5.36 -33.75,-8.15 -4.41,-1.52 -27.28,0.76 -21.13,-3.42 5.87,-4.66 23.18,-7.94 17.83,-17.69 -9.57,-4.8 -27,4.91 -32.53,1.88 19.53,-8.93 10.1,-21.67 -8.53,-14.58 -6.51,-0.39 -34.47,6.06 -16.7,-2.95 9.1,-1.94 11.41,-16.32 -0.43,-13.77 -13.67,1.92 -29.15,9.02 -40.62,11 5.7,-8.72 24.16,-14.25 20.7,-26 -13.24,-4.71 -29.38,8.61 -40.53,7.01 -3.83,-11.6 -1.56,-26.42 -9.66,-36.19 -17.22,1.74 -34.07,18.59 -49.32,19.89 -3.35,-10.48 -16.64,-0.13 -21.31,4.16 -11.97,-10.61 -21.22,-24.9 -34.79,-33.34 l -2.45,1.24 -0.77,0.39 z"
           inkscape:connector-curvature="0" />
        <path
           id="path3750"
           style="fill:none;stroke:#1a1a1a;stroke-width:3.9210999"
           d="m 1025.39,607.188 c 0,0 -5.72,-1.02 -13.01,-2.26 -3.71,-0.63 -7.56,-1.46 -12.01,-2.21 -4.09,-0.7 -8.79,-1.31 -12.88,-2.01 -4.45,-0.75 -7.82,-1.37 -11.53,-2 -7.29,-1.24 -12.67,-2.76 -12.67,-2.76 0,0 2.38,3.44 5.79,7.08 1.81,1.94 3.1,3.55 5.16,5.75 2.06,2.21 5.09,4.46 6.9,6.4 3.41,3.64 6.97,6.34 6.97,6.34 0,0 -6.2,-0.71 -12.84,-2.06 -3.54,-0.72 -7.58,-1.65 -11.6,-2.47 -4.02,-0.81 -7.77,-1.32 -11.31,-2.04 -6.64,-1.35 -11.29,-2.71 -11.29,-2.71 0,0 -0.76,3.13 -0.95,7.5 -0.1,2.15 0.13,4.16 0.02,6.82 -0.11,2.35 -0.44,5.23 -0.55,7.71 -0.11,2.48 0.03,5.13 -0.08,7.48 -0.11,2.66 -0.13,5.24 -0.22,7.39 -0.19,4.37 -0.55,7.09 -0.55,7.09 0,0 -3.58,-1.78 -8.23,-4.86 -2.47,-1.64 -5.51,-4.23 -8.32,-6.1 -2.82,-1.86 -6.47,-3.52 -8.95,-5.15 -4.65,-3.08 -6.39,-6.09 -6.39,-6.09 0,0 0.39,3.61 2.08,7.19 1,2.09 2.03,3.79 3.03,5.88 1.69,3.58 3.16,7.25 3.16,7.25 0,0 -3.44,-1.47 -9.48,-3.64 -2.98,-1.07 -5.92,-2.48 -9.61,-3.8 -3.26,-1.17 -7.21,-2.83 -10.65,-4.06 -3.43,-1.23 -7.72,-1.74 -10.98,-2.91 -3.69,-1.32 -6.73,-2.73 -9.71,-3.8 -6.04,-2.17 -10.08,-3.65 -10.08,-3.65 0,0 0.58,3.21 1.49,7.83 0.46,2.35 0.66,5.32 1.21,8.13 0.5,2.6 1.53,5.03 2.04,7.62 0.55,2.82 0.66,5.76 1.12,8.11 0.91,4.62 1.53,7.68 1.53,7.68 0,0 -3.2,-1.07 -9.09,-3.35 -3,-1.16 -6.53,-2.88 -10.12,-4.27 -3.31,-1.28 -6.9,-2.96 -10.2,-4.24 -3.59,-1.4 -6.77,-2.55 -9.76,-3.71 -5.89,-2.29 -10.55,-3.74 -10.55,-3.74 0,0 -1.93,2.53 -4.21,6.9 -1.16,2.22 -2.54,5.07 -3.93,7.73 -1.28,2.45 -2.56,5.32 -3.84,7.77 -1.39,2.67 -3.32,4.74 -4.48,6.96 -2.28,4.37 -2.86,7.67 -2.86,7.67 0,0 0.24,-3.31 -0.08,-8.03 -0.15,-2.32 -1.15,-5.03 -1.35,-7.9 -0.17,-2.54 -0.09,-4.86 -0.27,-7.53 -0.19,-2.68 -0.58,-5.1 -0.75,-7.64 -0.19,-2.87 -0.39,-5.92 -0.55,-8.25 -0.32,-4.71 -0.32,-8.54 -0.32,-8.54 0,0 -3.4,2.67 -7.44,6.11 -2.05,1.74 -4.32,3.97 -6.78,6.06 -2.27,1.92 -4.27,3.8 -6.53,5.73 -2.46,2.09 -5.53,3.85 -7.58,5.59 -4.04,3.44 -6.08,6.13 -6.08,6.13 0,0 0.11,-2.27 -0.04,-6.06 -0.08,-1.93 -0.67,-4.27 -0.76,-6.58 -0.09,-2.13 -0.89,-4.9 -0.97,-7.03 -0.1,-2.31 1.01,-4.22 0.93,-6.14 -0.16,-3.8 -1.59,-5.49 -1.59,-5.49 0,0 -1.78,1.13 -8.26,4.76 -3.19,1.78 -8.48,4.56 -12.43,6.77 -3.49,1.95 -7.64,3.41 -11.32,5.47 -3.67,2.06 -8.05,4.87 -11.54,6.82 -3.94,2.21 -5.82,4.02 -9.01,5.81 -6.48,3.63 -11.32,5.99 -11.32,5.99 0,0 1.19,-3.76 2.44,-8.4 0.64,-2.35 0.59,-5.04 1.35,-7.87 0.7,-2.59 1.47,-4.61 2.18,-7.21 0.76,-2.83 2.24,-5.62 2.88,-7.97 1.25,-4.64 1.92,-8.6 1.92,-8.6 0,0 -3.72,2.84 -8.82,6.42 -2.51,1.76 -5.47,4.2 -8.58,6.38 -2.75,1.92 -5.52,3.62 -8.41,5.65 -2.9,2.02 -5.65,2.87 -8.39,4.79 -3.11,2.18 -6.58,6.02 -9.09,7.78 -5.1,3.57 -8.81,5.16 -8.81,5.16 0,0 2.48,-2.49 4.86,-6.63 1.17,-2.05 1.79,-4.21 3.24,-6.73 1.29,-2.23 3.11,-4.88 4.47,-7.23 1.35,-2.35 2.72,-4.7 4.01,-6.94 1.45,-2.52 2.56,-4.52 3.73,-6.57 2.38,-4.14 3.62,-6.43 3.62,-6.43 0,0 -3.55,0.18 -10.61,1.81 -3.48,0.81 -8.72,1.11 -13.02,2.11 -3.8,0.88 -7.44,2.5 -11.45,3.43 -4.01,0.93 -7.52,1.43 -11.32,2.31 -4.305,0.99 -8.647,2.37 -12.127,3.18 -7.056,1.63 -11.801,2.61 -11.801,2.61 0,0 4.083,-2.64 9.051,-6.53 2.643,-2.06 4.756,-4.61 7.762,-6.96 3.005,-2.35 6.785,-3.96 9.425,-6.03 4.97,-3.89 7.98,-7.22 7.98,-7.22 0,0 -3.9,0.23 -11.3,1 -3.655,0.39 -7.361,1.05 -11.872,1.52 -3.99,0.41 -9.411,0.67 -13.616,1.11 -4.205,0.44 -8.161,1.04 -12.151,1.45 -4.512,0.48 -9.352,0.25 -13.004,0.63 -7.403,0.78 -12.572,1.9 -12.572,1.9 0,0 2.277,-2.93 6.678,-6.54 2.17,-1.79 5.767,-3.16 8.449,-5.37 2.371,-1.95 5.432,-4.46 7.931,-6.52 2.5,-2.05 4.623,-4.01 6.995,-5.96 2.681,-2.21 5.369,-4.23 7.539,-6.02 4.4,-3.62 7.444,-6.13 7.444,-6.13 0,0 -6.033,0.53 -14.307,1.64 -4.201,0.56 -9.119,1.48 -14.158,2.15 -4.637,0.62 -8.861,1.43 -13.497,2.05 -5.039,0.68 -10.863,1.56 -15.064,2.12 -8.273,1.11 -13.96,1.2 -13.96,1.2 0,0 5.314,-1.86 12.224,-4.93 3.509,-1.56 7.858,-3.22 12.066,-5.09 3.872,-1.72 7.354,-3.84 11.226,-5.56 4.208,-1.87 8.815,-2.98 12.324,-4.54 6.909,-3.07 11.263,-5.69 11.263,-5.69 0,0 -5.157,0.29 -12.955,-0.1 -3.846,-0.19 -8.549,-0.67 -13.301,-0.91 -4.203,-0.21 -8.328,-0.98 -12.757,-1.2 -4.429,-0.22 -9.627,-0.22 -13.83,-0.43 -4.752,-0.23 -9.2894,-0.26 -13.136,-0.45 -7.7968,-0.39 -12.911,-0.68 -12.911,-0.68 -10e-5,0 5.5616,-1.55 13.078,-3.78 3.6341,-1.07 7.354,-2.08 11.932,-3.44 3.953,-1.17 8.793,-2.84 13.082,-4.11 4.124,-1.22 8.48,-1.8 12.604,-3.03 4.29,-1.27 7.224,-2.59 11.177,-3.76 4.578,-1.36 10.325,-3.22 13.959,-4.3 7.517,-2.22 12.94,-3.39 12.94,-3.39 0,0 -6.037,-0.35 -13.106,-0.77 -3.486,-0.21 -6.567,-1.14 -10.874,-1.39 -3.81,-0.23 -7.931,-0.17 -11.946,-0.41 -4.015,-0.24 -8.725,0.35 -12.534,0.13 -4.308,-0.26 -8.467,-1.03 -11.953,-1.23 -7.068,-0.42 -11.759,-0.79 -11.759,-0.79 0,0 4.498,-1.25 12.416,-3.65 4.02,-1.22 9.7,-2.81 14.522,-4.27 4.437,-1.35 8.569,-2.99 13.006,-4.34 4.821,-1.46 9.307,-2.75 13.327,-3.97 7.916,-2.41 14.128,-4.1 14.128,-4.1 0,0 -5.268,-0.03 -13.425,0.11 -4.141,0.06 -9.544,0.76 -14.512,0.84 -4.57,0.08 -9.456,-0.54 -14.026,-0.47 -4.967,0.08 -9.312,0.24 -13.453,0.31 -8.155,0.13 -13.728,0.79 -13.728,0.79 -1e-4,0 4.94,-2.98 12.363,-5.24 3.949,-1.2 8.928,-1.48 13.419,-2.84 4.491,-1.37 8.701,-2.93 12.651,-4.13 7.423,-2.26 13.204,-4.12 13.204,-4.12 0,0 -4.809,-1.11 -10.566,-4.1 -2.924,-1.52 -5.841,-4.18 -9.347,-6 -3.226,-1.68 -6.646,-4.45 -9.872,-6.13 -3.506,-1.82 -6.104,-2.17 -9.027,-3.69 -5.756,-3 -10.431,-5.69 -10.431,-5.69 -4e-4,0 5.507,0.77 12.618,0.78 3.611,0 7.334,-0.42 11.665,-0.41 3.985,0 9.183,-0.34 13.168,-0.34 4.331,0.01 7.408,0.77 11.019,0.77 7.11,0.01 12.689,0.21 12.689,0.21 0,0 -5.109,-2.23 -11.423,-4.45 -3.359,-1.18 -6.836,-2.95 -10.656,-4.29 -3.82,-1.35 -8.313,-2.17 -11.672,-3.35 -6.314,-2.22 -10.804,-4.03 -10.804,-4.03 0,0 5.803,-0.37 13.058,-0.64 3.578,-0.13 6.984,-0.45 11.405,-0.62 3.91,-0.15 8.077,0.06 12.197,-0.09 4.121,-0.16 8.33,-0.23 12.24,-0.38 4.422,-0.16 8.285,-0.4 11.863,-0.53 7.255,-0.27 13.029,-0.3 13.029,-0.3 0,0 -3.064,-3.05 -6.089,-6.83 -1.492,-1.86 -2.459,-3.29 -4.302,-5.59 -1.63,-2.04 -3.774,-4.63 -5.491,-6.78 -1.718,-2.15 -3.086,-3.8 -4.717,-5.83 -1.843,-2.31 -3.548,-5.16 -5.04,-7.02 -3.025,-3.79 -5.975,-6.17 -5.975,-6.17 0,0 4.177,1.23 10.491,3.1 3.113,0.93 7.699,2.04 11.546,3.18 3.402,1.01 6.522,1.83 10.104,2.9 3.59,1.06 7.18,2.18 10.58,3.19 3.85,1.14 7.54,2.41 10.66,3.33 6.31,1.87 10.48,3.21 10.48,3.21 0,0 -2.49,-2.93 -5.92,-6.79 -1.82,-2.06 -3.85,-4.6 -5.93,-6.93 -2.07,-2.34 -3.53,-4.53 -5.36,-6.59 -3.43,-3.86 -6.73,-6.66 -6.73,-6.66 0,0 4.96,0.94 12.07,1.56 3.51,0.31 7.31,0.31 11.65,0.68 3.83,0.34 7.58,0.86 11.62,1.21 4.04,0.36 9.25,0.31 13.08,0.65 4.34,0.37 6.83,1.04 10.33,1.34 7.11,0.62 12.22,0.87 12.22,0.87 0,0 -1.91,-2.77 -5.03,-6.39 -1.66,-1.93 -3.27,-4.55 -5.16,-6.74 -1.89,-2.19 -5.07,-3.89 -6.73,-5.82 -3.12,-3.62 -4.88,-5.93 -4.88,-5.93 0,0 4.14,0.52 10.13,2.3 3.05,0.9 7.46,2.9 11.11,3.98 3.36,0.99 6.46,1.22 9.82,2.21 3.65,1.08 7.1,2.13 10.15,3.04 5.99,1.77 10.36,3.09 10.36,3.09 0,0 -0.22,-3.45 0.02,-7.84 0.12,-2.23 0.76,-4.56 0.9,-7.23 0.13,-2.46 0.2,-5.11 0.33,-7.57 0.14,-2.68 -0.03,-5.12 0.09,-7.35 0.23,-4.39 0.57,-7.46 0.57,-7.46 0,0 2.33,3.14 5.08,6.8 1.61,2.14 3.23,4.5 4.84,6.64 2.75,3.65 5.01,6.15 5.01,6.15 0,0 2.75,-2.44 6.72,-6.62 1.96,-2.06 4.67,-4.22 7.09,-6.77 2.14,-2.25 3.09,-4.71 5.34,-7.09 2.26,-2.37 5.67,-4.45 7.81,-6.7 2.42,-2.55 4.84,-5.26 6.8,-7.32 3.97,-4.18 5.13,-6.68 5.13,-6.68 0,0 0.99,1.88 3.13,5.65 1.09,1.92 3.64,4.38 4.94,6.68 1.2,2.12 3.51,4.34 4.7,6.45 1.31,2.3 2.03,4.68 3.11,6.6 2.14,3.77 3.3,6.46 3.3,6.46 0,0 1.48,-2.68 3.78,-6.82 1.18,-2.1 2.57,-4.45 3.97,-6.97 1.29,-2.32 2.71,-4.91 4,-7.23 1.4,-2.52 3.64,-5.42 4.81,-7.52 2.3,-4.14 3.41,-6.92 3.41,-6.92 0,0 2.79,2.36 6.07,5.91 1.62,1.76 3.01,3.63 5.01,5.79 1.77,1.92 3.13,4.32 4.99,6.34 1.87,2.02 3.79,4.02 5.56,5.94 2,2.17 3.93,3.92 5.55,5.67 3.28,3.56 5.25,5.69 5.25,5.69 0,0 3.29,-1.95 7.73,-5.6 2.25,-1.84 5.62,-4.48 8.32,-6.7 2.49,-2.04 3.89,-3.56 6.38,-5.6 2.7,-2.22 5.04,-4.48 7.29,-6.33 4.43,-3.64 9.1,-6.35 9.1,-6.35 0,0 -2.44,3.43 -5.32,7.88 -1.53,2.36 -3.1,5.07 -4.84,7.75 -1.75,2.69 -3.5,5.29 -5.03,7.65 -2.89,4.45 -5.24,7.96 -5.24,7.96 0,0 4.27,-2.25 10.27,-5.57 3.04,-1.68 5.35,-4.04 9,-6.06 3.36,-1.86 8.02,-3.86 11.38,-5.72 3.65,-2.02 6.27,-3.58 9.32,-5.27 5.99,-3.32 10.59,-5.79 10.59,-5.79 0,0 -0.75,3.38 -0.01,7.54 0.37,2.05 2.09,3.87 2.54,6.4 0.4,2.24 -0.32,4.76 0.1,7.12 0.42,2.36 2.01,4.65 2.41,6.89 0.45,2.53 0.75,4.44 1.11,6.49 0.75,4.15 2.51,6.75 2.51,6.75 0,0 4.26,-1.63 11.85,-4.16 4.04,-1.34 8.79,-2.37 13.39,-3.9 4.59,-1.53 9.15,-3.41 13.19,-4.75 7.59,-2.53 11.98,-4.44 11.98,-4.44 0,0 -1.78,3.48 -6.33,7.84 -2.31,2.22 -5.11,4.55 -7.88,7.21 -2.55,2.45 -4.95,4.61 -7.5,7.06 -2.78,2.66 -5.15,5.62 -7.46,7.84 -4.55,4.36 -7.67,7.45 -7.67,7.45 0,0 3.91,-1.52 11.18,-3.92 3.51,-1.16 7.87,-2.53 12.29,-3.99 3.83,-1.26 7.94,-2.65 12.09,-4.02 3.98,-1.32 7.93,-2.63 11.92,-3.94 4.14,-1.37 9.16,-2.37 12.99,-3.63 4.42,-1.46 7.55,-2.87 11.06,-4.03 7.27,-2.4 11.93,-4.44 11.93,-4.44 0,0 -2.34,2.18 -7.5,5.63 -2.54,1.71 -6.34,3.45 -9.48,5.56 -2.78,1.86 -5.65,4.3 -8.58,6.26 -2.93,1.97 -6.08,4.04 -8.86,5.91 -3.14,2.1 -6.28,4.05 -8.82,5.76 -5.16,3.45 -7.59,5.83 -7.59,5.83 0,0 4.53,-0.62 11.62,-1.45 3.6,-0.42 7.19,-0.85 11.51,-1.36 3.97,-0.46 8.18,-0.92 12.15,-1.38 4.32,-0.51 8.18,-1.06 11.78,-1.48 7.09,-0.83 12.35,-1.36 12.35,-1.36 0,0 -3.39,2.35 -7.9,5.41 -2.4,1.63 -5.08,3.08 -7.81,4.93 -2.73,1.86 -5.14,3.74 -7.54,5.36 -4.52,3.07 -8.15,6.01 -8.15,6.01 0,0 4.7,-0.47 11.43,-1.75 3.42,-0.66 6.4,-2.06 10.5,-2.85 3.77,-0.72 8.74,-1.85 12.51,-2.57 4.1,-0.78 7.93,-1.32 11.35,-1.97 6.73,-1.29 11.72,-2.19 11.72,-2.19 0,0 -3.72,1.9 -8.83,5.03 -2.6,1.58 -4.55,4.38 -7.67,6.29 -2.86,1.75 -6.1,3.04 -8.96,4.79 -3.11,1.91 -6.74,3.59 -9.34,5.18 -5.11,3.12 -9.16,4.89 -9.16,4.89 0,0 4.08,0.02 11.64,0.36 3.73,0.16 9.33,0.82 13.93,1.03 4.08,0.18 8.42,0.48 12.71,0.67 4.29,0.19 8.69,0.36 12.77,0.55 4.6,0.2 9.77,-0.17 13.5,0 7.56,0.34 10.81,1.48 10.81,1.48 0,0 -4.03,2.02 -10.43,5.05 -3.25,1.54 -8.36,2.52 -12.27,4.36 -3.58,1.7 -5.85,4.38 -9.44,6.08 -3.9,1.84 -7.37,3.89 -10.63,5.43 -6.4,3.03 -10.84,3.96 -10.84,3.96 0,0 5.93,0.98 14.25,1.29 4.23,0.16 9.61,-0.22 14.69,-0.03 4.66,0.18 9.08,0.67 13.75,0.85 5.07,0.19 9.8,-0.67 14.03,-0.51 8.33,0.32 13.38,1.5 13.38,1.5 0,0 -5.22,1.82 -13.15,3.99 -4.04,1.1 -7.5,2.29 -12.33,3.61 -4.45,1.22 -9.92,1.69 -14.37,2.9 -4.83,1.33 -9.49,3.32 -13.52,4.43 -7.94,2.17 -13.41,3.99 -13.41,3.99 0,0 3.48,1.1 8.31,3.54 2.46,1.24 5.72,3.08 8.67,4.57 2.71,1.36 4.51,3.33 7.22,4.7 2.94,1.49 6.11,2.07 8.56,3.3 4.84,2.44 8.32,3.71 8.32,3.71 0,0 -5.67,0.73 -13.62,0.86 -4.23,0.07 -9.14,0.51 -13.95,0.59 -4.81,0.08 -9.54,-0.21 -13.77,-0.14 -7.96,0.13 -13.44,0.47 -13.44,0.47 0,0 2.94,1.75 8.67,4.51 2.91,1.4 6.3,2.21 9.8,3.89 3.21,1.55 6.75,4.06 9.96,5.61 3.49,1.68 6.4,3.12 9.31,4.52 5.74,2.76 9.61,4.65 9.61,4.65 0,0 -4.53,-0.35 -11.62,-0.72 -3.78,-0.19 -9.34,-0.3 -13.63,-0.52 -4.29,-0.22 -7.47,-0.43 -11.25,-0.63 -7.09,-0.36 -12.18,-0.55 -12.18,-0.55 0,0 2.06,2.55 4.61,6.76 1.29,2.14 2.8,4.93 4.35,7.49 1.42,2.36 2.72,5.17 4.14,7.53 1.56,2.56 3.06,4.64 4.36,6.77 2.54,4.21 4.72,7.11 4.72,7.11 0,0 -5.12,-0.63 -11.28,-1.62 -3.28,-0.52 -6.67,-1.24 -10.4,-1.84 -3.73,-0.6 -7.46,-1.01 -10.74,-1.54 -6.16,-0.99 -11.18,-1.08 -11.18,-1.08 0,0 2.29,2.32 3.97,6.66 0.89,2.3 1.32,5.02 2.34,7.64 1.01,2.63 1.83,5.2 2.73,7.51 1.67,4.34 2.98,7.71 2.98,7.71 l -0.08,0.02"
           inkscape:connector-curvature="0" />
        <g
           id="g3231"
           style="opacity:0.90908999;fill:#d40000"
           transform="matrix(1.0413,0,0,1.0413,-116.75,-11.745)">
          <path
             id="path3221"
             d="m 823.21,137.34 c -17.28,1.65 -33.32,9.08 -49.69,14.39 -4.93,4.38 -2.05,12.4 -3.41,18.38 -1.52,26.83 -4.37,53.77 -6.28,80.59 1.16,7.37 10.2,4.97 15.09,3.56 22.3,-5.73 43.7,-19.28 55.46,-39.45 4.54,-7.73 6.7,-21.62 -3.57,-25.76 -3.15,-1.1 -6.56,-1.19 -9.85,-0.82 9.98,-10.86 21.42,-24.19 19.61,-39.9 -1.4,-8.1 -9.96,-11.58 -17.36,-10.99 z m -12.32,32.2 c 2.22,0.31 -1.14,4.17 -1.54,5.36 -2.61,3.89 -5.9,7.13 -9.35,10.3 1.19,-4.33 0.79,-9.82 3.07,-13.48 2.5,-0.95 5.09,-2.04 7.82,-2.18 z m 0.54,37.15 c 3.52,-0.45 0.49,3.8 -0.69,4.83 -4.3,4.15 -9.64,6.95 -14.93,9.6 0.51,-3.44 0.02,-8 1.83,-10.77 4.43,-1.69 9.01,-3.34 13.79,-3.66 z"
             style="fill:#d40000"
             transform="translate(-37.386,314.98)"
             inkscape:connector-curvature="0" />
          <path
             id="path3223"
             d="m 918.41,127.71 c -15.51,2.63 -31.16,5.67 -46.33,9.51 -4.65,4.91 -5,13.02 -8.01,19.17 -10.21,27.77 -21.93,54.99 -34.39,81.84 -1.59,6.26 6.35,5.97 10.16,4.58 8.37,-2.15 17.64,-2.08 25.38,-5.84 2.78,-4.55 0.77,-13.35 8.31,-12.63 5.57,-2.07 -0.25,7.74 0.5,10.61 -0.9,6.97 7.08,5.08 11.05,3.56 7.95,-2.74 17.1,-2.93 24.37,-7.13 4.03,-6.85 1.76,-15.54 3.14,-23.16 1.42,-25.7 5.37,-51.27 10.05,-76.5 0.14,-2.12 -2.16,-4.24 -4.23,-4.01 z m -35.45,57.33 c -1.32,5.15 -1.59,11.45 -3.47,16 -6.08,2.1 0.57,-7.29 0.42,-10.4 1.63,-5.26 3.3,-10.51 4.95,-15.77 -0.63,3.39 -1.27,6.78 -1.9,10.17 z"
             style="fill:#d40000"
             transform="translate(-37.386,314.98)"
             inkscape:connector-curvature="0" />
          <path
             id="path3225"
             d="m 1012.3,137.09 c -6.4,2.26 -14.81,1.05 -19.64,6.03 -3.49,9.88 -6.9,19.8 -10.42,29.67 1.15,-10.21 3.98,-21.32 3.6,-31.16 -2.49,-5.89 -10.21,-1.33 -14.93,-1.35 -8.51,2.1 -17.85,2.24 -25.7,6.02 -9.34,31.51 -20.64,62.49 -34.15,92.5 -2.73,3.46 -1.02,9.94 3.94,8.74 9.5,-1.31 19.46,-2.15 28.44,-5.22 5.14,-10.2 7.69,-22.16 11.85,-33.03 2.67,-7.9 5.35,-15.79 8.14,-23.65 -2.96,20.85 -7.52,41.62 -9.69,62.5 2.22,6.59 10.3,1.96 14.96,1.63 8.29,-0.38 7.34,-10.84 10.45,-16.41 4.34,-12.4 8.6,-24.83 12.97,-37.21 -1.69,13.48 -3.75,26.93 -4.83,40.47 1.74,6.87 9.87,2.51 14.61,2.19 6.6,-1.77 14,-2.13 20,-5.7 3.5,-7.09 1,-15.65 2.3,-23.32 1.4,-24.43 5.8,-48.74 9,-72.9 -2.3,-6.77 -11,-0.75 -16.1,-0.81 -1.6,0.34 -3.2,0.67 -4.8,1.01 z"
             style="fill:#d40000"
             transform="translate(-37.386,314.98)"
             inkscape:connector-curvature="0" />
          <path
             id="path3227"
             d="m 1069.6,114.86 c -7,17.55 -11.7,36.16 -17.7,54.12 -1.4,6.33 -5.3,12.38 -4.9,18.87 3.5,5.66 11.7,2.71 17.3,3.09 8,0.52 9.1,-9.37 11.8,-14.71 7.4,-18.98 17.8,-36.62 27.4,-54.52 2,-6.7 -6.6,-6.42 -10.8,-6.69 -7.6,0.04 -15.8,-1.98 -23.1,-0.16 z"
             style="fill:#d40000"
             transform="translate(-37.386,314.98)"
             inkscape:connector-curvature="0" />
          <path
             id="path3229"
             d="m 1055.9,203.19 c -10.7,0.57 -21.4,7.66 -25.8,17.49 -2.4,7.18 4.5,14.25 11.7,12.43 11.9,-0.77 25.7,-8.33 27.4,-21.08 0,-6.95 -7.5,-9.28 -13.3,-8.84 z"
             style="fill:#d40000"
             transform="translate(-37.386,314.98)"
             inkscape:connector-curvature="0" />
        </g>
        <path
           id="text2436"
           style="opacity:0.91736001;fill:none;stroke:#000000;stroke-width:3.12380004"
           d="m 646.86,485.03 c 3.53,-1.06 10.12,-3.44 19.77,-7.14 8.34,-3.1 15.06,-5.3 20.16,-6.61 2,-0.41 3.95,-0.78 5.86,-1.08 14.76,-2.36 22.49,1.02 23.21,10.14 1.17,12.87 -6.83,27.21 -24,43.01 11.45,-2.52 18.36,-0.78 20.72,5.23 0.46,1.3 0.75,2.68 0.89,4.13 0.65,7.26 -2.7,15.25 -10.08,23.99 -5.63,6.7 -12.78,12.94 -21.44,18.74 -10.37,6.96 -22.6,11.57 -36.69,13.82 -2.24,0.36 -4.48,0.66 -6.72,0.93 2.56,-20.54 4.95,-47.97 7.16,-82.3 0.7,-9.73 1.09,-17.35 1.16,-22.86 m 23.26,57.55 c -0.56,3.82 -1.06,8.95 -1.49,15.41 15.38,-6.68 22.84,-12.69 22.35,-18.01 -0.17,-1.93 -2.22,-2.59 -6.13,-1.96 -3.47,0.55 -8.38,2.07 -14.73,4.56 m 5.69,-40.38 c -0.6,3.33 -1.15,6.66 -1.64,9.98 l -1.48,9.96 c 7.77,-5.66 13.12,-11.62 16.07,-17.89 0.67,-1.38 0.97,-2.46 0.9,-3.23 -0.15,-1.65 -1.68,-2.24 -4.59,-1.77 -2.23,0.35 -5.32,1.34 -9.26,2.95 m 29.99,75.51 c 18.12,-37.76 33.05,-74.02 44.78,-108.78 l 51.44,-10.42 c -7.16,30.09 -11.37,65.44 -12.63,106.07 l -35.96,9.25 3.35,-18.56 -11.35,2.56 -4.11,13.16 -35.52,6.72 m 54.55,-42.33 10.23,-56.13 -0.17,0.01 -18.36,57.91 8.3,-1.79 m 28.36,46.7 c 16.63,-34.45 29.71,-69.28 39.22,-104.5 l 40.44,-8.03 -8.14,54.39 17.87,-50.83 38.93,-8.09 c -6.02,32.27 -9.61,61.28 -10.77,87.01 -0.23,5.1 -0.4,10.16 -0.51,15.16 l -34.7,7.27 8.94,-64.87 -25.22,72.7 -18.59,3.26 15.16,-91.38 -27.48,81.8 -35.15,6.11 m 149.3,-43.81 c 3.93,-0.85 7.4,-0.67 10.43,0.52 3.59,1.24 5.39,3.52 5.39,6.85 0,4.5 -2.75,8.86 -8.25,13.08 -4.26,3.33 -8.91,5.51 -13.96,6.56 -4.04,0.86 -7.52,0.78 -10.43,-0.22 -3.48,-1.25 -5.22,-3.54 -5.22,-6.87 0,-4.5 2.64,-8.9 7.91,-13.2 4.26,-3.42 8.97,-5.66 14.13,-6.72 m 19.01,-93.06 35.17,1.94 c -9.31,15.43 -16.16,27.46 -20.53,36.08 -5.94,11.8 -11.22,24.46 -15.81,38 l -23.39,1.25 24.56,-77.27"
           inkscape:connector-curvature="0" />
      </g>
    </g>
  </g>
  <metadata
     id="metadata26">
    <rdf:RDF>
      <cc:Work>
        <dc:format>image/svg+xml</dc:format>
        <dc:type
           rdf:resource="http://purl.org/dc/dcmitype/StillImage" />
        <cc:license
           rdf:resource="http://creativecommons.org/licenses/publicdomain/" />
        <dc:publisher>
          <cc:Agent
             rdf:about="http://openclipart.org/">
            <dc:title>Openclipart</dc:title>
          </cc:Agent>
        </dc:publisher>
        <dc:title>BAM comic book sound effect</dc:title>
        <dc:date>2011-08-22T14:53:20</dc:date>
        <dc:description>1940's style comic book sound effect with out of register colors on browned paper.</dc:description>
        <dc:source>https://openclipart.org/detail/157495/bam-comic-book-sound-effect-by-studio_hades</dc:source>
        <dc:creator>
          <cc:Agent>
            <dc:title>studio_hades</dc:title>
          </cc:Agent>
        </dc:creator>
        <dc:subject>
          <rdf:Bag>
            <rdf:li>1940's</rdf:li>
            <rdf:li>Comic Book</rdf:li>
            <rdf:li>Header</rdf:li>
            <rdf:li>Headline</rdf:li>
            <rdf:li>Lettering</rdf:li>
            <rdf:li>Sound Effect</rdf:li>
          </rdf:Bag>
        </dc:subject>
      </cc:Work>
      <cc:License
         rdf:about="http://creativecommons.org/licenses/publicdomain/">
        <cc:permits
           rdf:resource="http://creativecommons.org/ns#Reproduction" />
        <cc:permits
           rdf:resource="http://creativecommons.org/ns#Distribution" />
        <cc:permits
           rdf:resource="http://creativecommons.org/ns#DerivativeWorks" />
      </cc:License>
    </rdf:RDF>
  </metadata>
</svg>
